<svg xmlns="http://www.w3.org/2000/svg"  viewBox="0 0 100 100" width="100px" height="100px"><path fill="#c7ede6" d="M87.215,56.71C88.35,54.555,89,52.105,89,49.5c0-6.621-4.159-12.257-10.001-14.478 C78.999,35.015,79,35.008,79,35c0-11.598-9.402-21-21-21c-9.784,0-17.981,6.701-20.313,15.757C36.211,29.272,34.638,29,33,29 c-7.692,0-14.023,5.793-14.89,13.252C12.906,43.353,9,47.969,9,53.5C9,59.851,14.149,65,20.5,65c0.177,0,0.352-0.012,0.526-0.022 C21.022,65.153,21,65.324,21,65.5C21,76.822,30.178,86,41.5,86c6.437,0,12.175-2.972,15.934-7.614C59.612,80.611,62.64,82,66,82 c4.65,0,8.674-2.65,10.666-6.518C77.718,75.817,78.837,76,80,76c6.075,0,11-4.925,11-11C91,61.689,89.53,58.727,87.215,56.71z"/><path fill="#fdfcef" d="M34.875,43.5c0,0,3.64,0,6.125,0s4.5-2.015,4.5-4.5c0-2.333-1.782-4.229-4.055-4.455 C41.467,34.364,41.5,34.187,41.5,34c0-2.485-2.015-4.5-4.5-4.5c-1.438,0-2.703,0.686-3.527,1.736 C33.333,28.6,31.171,26.5,28.5,26.5c-2.761,0-5,2.239-5,5c0,0.446,0.077,0.87,0.187,1.282C23.045,32.005,22.086,31.5,21,31.5 c-1.781,0-3.234,1.335-3.455,3.055C17.364,34.533,17.187,34.5,17,34.5c-2.485,0-4.5,2.015-4.5,4.5s2.015,4.5,4.5,4.5s9.5,0,9.5,0 h5.375V44h3V43.5z"/><path fill="#472b29" d="M28.5,26c-3.033,0-5.5,2.467-5.5,5.5c0,0.016,0,0.031,0,0.047C22.398,31.192,21.71,31,21,31 c-1.831,0-3.411,1.261-3.858,3.005C17.095,34.002,17.048,34,17,34c-2.757,0-5,2.243-5,5s2.243,5,5,5h14.875 c0.276,0,0.5-0.224,0.5-0.5s-0.224-0.5-0.5-0.5H17c-2.206,0-4-1.794-4-4s1.794-4,4-4c0.117,0,0.23,0.017,0.343,0.032l0.141,0.019 c0.021,0.003,0.041,0.004,0.062,0.004c0.246,0,0.462-0.185,0.495-0.437C18.232,33.125,19.504,32,21,32 c0.885,0,1.723,0.401,2.301,1.1c0.098,0.118,0.241,0.182,0.386,0.182c0.078,0,0.156-0.018,0.228-0.056 c0.209-0.107,0.314-0.346,0.254-0.573C24.054,32.218,24,31.852,24,31.5c0-2.481,2.019-4.5,4.5-4.5 c2.381,0,4.347,1.872,4.474,4.263c0.011,0.208,0.15,0.387,0.349,0.45c0.05,0.016,0.101,0.024,0.152,0.024 c0.15,0,0.296-0.069,0.392-0.192C34.638,30.563,35.779,30,37,30c2.206,0,4,1.794,4,4c0,0.117-0.017,0.23-0.032,0.343l-0.019,0.141 c-0.016,0.134,0.022,0.268,0.106,0.373c0.084,0.105,0.207,0.172,0.34,0.185C43.451,35.247,45,36.949,45,39c0,2.206-1.794,4-4,4 h-6.125c-0.276,0-0.5,0.224-0.5,0.5s0.224,0.5,0.5,0.5H41c2.757,0,5-2.243,5-5c0-2.397-1.689-4.413-4.003-4.877 C41.999,34.082,42,34.041,42,34c0-2.757-2.243-5-5-5c-1.176,0-2.293,0.416-3.183,1.164C33.219,27.76,31.055,26,28.5,26L28.5,26z"/><path fill="#472b29" d="M27 33c-1.403 0-2.609.999-2.913 2.341C23.72 35.119 23.301 35 22.875 35c-1.202 0-2.198.897-2.353 2.068C20.319 37.022 20.126 37 19.937 37c-1.529 0-2.811 1.2-2.918 2.732C17.01 39.87 17.114 39.99 17.251 40c.006 0 .012 0 .018 0 .13 0 .24-.101.249-.232.089-1.271 1.151-2.268 2.419-2.268.229 0 .47.042.738.127.022.007.045.01.067.01.055 0 .11-.02.156-.054C20.962 37.537 21 37.455 21 37.375c0-1.034.841-1.875 1.875-1.875.447 0 .885.168 1.231.473.047.041.106.063.165.063.032 0 .063-.006.093-.019.088-.035.148-.117.155-.212C24.623 34.512 25.712 33.5 27 33.5c.208 0 .425.034.682.107.023.007.047.01.07.01.109 0 .207-.073.239-.182.038-.133-.039-.271-.172-.309C27.517 33.04 27.256 33 27 33L27 33zM40.883 34.5c-1.326 0-2.508.897-2.874 2.182-.038.133.039.271.172.309C38.205 36.997 38.228 37 38.25 37c.109 0 .209-.072.24-.182C38.795 35.748 39.779 35 40.883 35c.117 0 .23.014.342.029.012.002.023.003.035.003.121 0 .229-.092.246-.217.019-.137-.077-.263-.214-.281C41.158 34.516 41.022 34.5 40.883 34.5L40.883 34.5z"/><path fill="#fff" d="M17.405 59H7.5C7.224 59 7 58.776 7 58.5S7.224 58 7.5 58h9.905c.276 0 .5.224.5.5S17.682 59 17.405 59zM20.5 59h-1c-.276 0-.5-.224-.5-.5s.224-.5.5-.5h1c.276 0 .5.224.5.5S20.777 59 20.5 59zM25.491 61H16.5c-.276 0-.5-.224-.5-.5s.224-.5.5-.5h8.991c.276 0 .5.224.5.5S25.767 61 25.491 61zM14.5 61h-1c-.276 0-.5-.224-.5-.5s.224-.5.5-.5h1c.276 0 .5.224.5.5S14.777 61 14.5 61zM11.5 61h-2C9.224 61 9 60.776 9 60.5S9.224 60 9.5 60h2c.276 0 .5.224.5.5S11.777 61 11.5 61zM17.5 63h-2c-.276 0-.5-.224-.5-.5s.224-.5.5-.5h2c.276 0 .5.224.5.5S17.776 63 17.5 63zM20.5 54c-.177 0-.823 0-1 0-.276 0-.5.224-.5.5 0 .276.224.5.5.5.177 0 .823 0 1 0 .276 0 .5-.224.5-.5C21 54.224 20.776 54 20.5 54zM20.5 56c-.177 0-4.823 0-5 0-.276 0-.5.224-.5.5 0 .276.224.5.5.5.177 0 4.823 0 5 0 .276 0 .5-.224.5-.5C21 56.224 20.776 56 20.5 56zM25.5 58c-.177 0-2.823 0-3 0-.276 0-.5.224-.5.5 0 .276.224.5.5.5.177 0 2.823 0 3 0 .276 0 .5-.224.5-.5C26 58.224 25.776 58 25.5 58z"/><g><path fill="#fff" d="M70.5 22h-10c-.276 0-.5-.224-.5-.5s.224-.5.5-.5h10c.276 0 .5.224.5.5S70.776 22 70.5 22zM74.5 22h-2c-.276 0-.5-.224-.5-.5s.224-.5.5-.5h2c.276 0 .5.224.5.5S74.776 22 74.5 22zM79.5 24h-10c-.276 0-.5-.224-.5-.5s.224-.5.5-.5h10c.276 0 .5.224.5.5S79.777 24 79.5 24zM67.5 24h-1c-.276 0-.5-.224-.5-.5s.224-.5.5-.5h1c.276 0 .5.224.5.5S67.776 24 67.5 24zM64.375 24H62.5c-.276 0-.5-.224-.5-.5s.224-.5.5-.5h1.875c.276 0 .5.224.5.5S64.651 24 64.375 24zM73.5 20h-5c-.276 0-.5-.224-.5-.5s.224-.5.5-.5h5c.276 0 .5.224.5.5S73.777 20 73.5 20zM70.5 26h-2c-.276 0-.5-.224-.5-.5s.224-.5.5-.5h2c.276 0 .5.224.5.5S70.776 26 70.5 26z"/></g><g><path fill="#afabd4" d="M36.636,74.3c-3.825,0-6.936-3.111-6.936-6.937V40.637c0-3.825,3.111-6.937,6.936-6.937h26.728 c3.825,0,6.936,3.111,6.936,6.937v26.727c0,3.825-3.111,6.937-6.936,6.937H36.636z"/><path fill="#472b29" d="M63.364,34.4c3.439,0,6.236,2.798,6.236,6.236v26.728c0,3.438-2.798,6.236-6.236,6.236H36.636 c-3.439,0-6.236-2.798-6.236-6.236V40.636c0-3.438,2.798-6.236,6.236-6.236H63.364 M63.364,33H36.636 C32.419,33,29,36.419,29,40.636v26.728C29,71.581,32.419,75,36.636,75h26.727C67.581,75,71,71.581,71,67.364V40.636 C71,36.419,67.581,33,63.364,33L63.364,33z"/></g><g><path fill="#472b29" d="M51.619,38H40.5c-0.276,0-0.5-0.224-0.5-0.5s0.224-0.5,0.5-0.5h11.119c0.276,0,0.5,0.224,0.5,0.5 S51.896,38,51.619,38z"/></g><g><path fill="#472b29" d="M62.251,70.938H37.812c-2.619,0-4.749-2.131-4.749-4.749V41.749c0-2.618,2.13-4.749,4.749-4.749 c0.276,0,0.5,0.224,0.5,0.5s-0.224,0.5-0.5,0.5c-2.067,0-3.749,1.682-3.749,3.749v24.439c0,2.067,1.682,3.749,3.749,3.749h24.439 c2.067,0,3.749-1.682,3.749-3.749V52.614c0-0.276,0.224-0.5,0.5-0.5s0.5,0.224,0.5,0.5v13.574 C67,68.807,64.87,70.938,62.251,70.938z"/></g><g><path fill="#fdfcef" d="M82.5,65.5c0,0,1.567,0,3.5,0s3.5-1.567,3.5-3.5c0-1.781-1.335-3.234-3.055-3.455 C86.473,58.366,86.5,58.187,86.5,58c0-1.933-1.567-3.5-3.5-3.5c-1.032,0-1.95,0.455-2.59,1.165 c-0.384-1.808-1.987-3.165-3.91-3.165c-2.209,0-4,1.791-4,4c0,0.191,0.03,0.374,0.056,0.558C72.128,56.714,71.592,56.5,71,56.5 c-1.228,0-2.245,0.887-2.455,2.055C68.366,58.527,68.187,58.5,68,58.5c-1.933,0-3.5,1.567-3.5,3.5s1.567,3.5,3.5,3.5s7.5,0,7.5,0 V66h7V65.5z"/><path fill="#472b29" d="M84.25 61C84.112 61 84 60.888 84 60.75c0-1.223.995-2.218 2.218-2.218.034.009.737-.001 1.244.136.133.036.212.173.176.306-.036.134-.173.213-.306.176-.444-.12-1.1-.12-1.113-.118-.948 0-1.719.771-1.719 1.718C84.5 60.888 84.388 61 84.25 61zM77.5 65A.5.5 0 1 0 77.5 66 .5.5 0 1 0 77.5 65z"/><path fill="#472b29" d="M86,66h-3.5c-0.276,0-0.5-0.224-0.5-0.5s0.224-0.5,0.5-0.5H86c1.654,0,3-1.346,3-3 c0-1.496-1.125-2.768-2.618-2.959c-0.134-0.018-0.255-0.088-0.336-0.196s-0.115-0.244-0.094-0.377C85.975,58.314,86,58.16,86,58 c0-1.654-1.346-3-3-3c-0.85,0-1.638,0.355-2.219,1c-0.125,0.139-0.321,0.198-0.5,0.148c-0.182-0.049-0.321-0.195-0.36-0.379 C79.58,54.165,78.141,53,76.5,53c-1.93,0-3.5,1.57-3.5,3.5c0,0.143,0.021,0.28,0.041,0.418c0.029,0.203-0.063,0.438-0.242,0.54 c-0.179,0.102-0.396,0.118-0.556-0.01C71.878,57.155,71.449,57,71,57c-0.966,0-1.792,0.691-1.963,1.644 c-0.048,0.267-0.296,0.446-0.569,0.405C68.314,59.025,68.16,59,68,59c-1.654,0-3,1.346-3,3s1.346,3,3,3h7.5 c0.276,0,0.5,0.224,0.5,0.5S75.776,66,75.5,66H68c-2.206,0-4-1.794-4-4s1.794-4,4-4c0.059,0,0.116,0.002,0.174,0.006 C68.588,56.82,69.711,56,71,56c0.349,0,0.689,0.061,1.011,0.18C72.176,53.847,74.126,52,76.5,52c1.831,0,3.466,1.127,4.153,2.774 C81.333,54.276,82.155,54,83,54c2.206,0,4,1.794,4,4c0,0.048-0.001,0.095-0.004,0.142C88.739,58.59,90,60.169,90,62 C90,64.206,88.206,66,86,66z"/><path fill="#472b29" d="M80.5,65c-0.159,0-0.841,0-1,0c-0.276,0-0.5,0.224-0.5,0.5c0,0.276,0.224,0.5,0.5,0.5 c0.159,0,0.841,0,1,0c0.276,0,0.5-0.224,0.5-0.5C81,65.224,80.776,65,80.5,65z"/></g><g><path fill="#fefdef" d="M49.882,56.42c-0.614,0-1.192-0.238-1.626-0.673c-0.434-0.435-0.673-1.012-0.673-1.627 c0-0.614,0.239-1.191,0.674-1.626l15.118-15.118H56.42c-1.268,0-2.3-1.031-2.3-2.3s1.032-2.3,2.3-2.3l14.798-0.003l0,14.801 c0,1.269-1.032,2.3-2.3,2.3s-2.3-1.031-2.3-2.3v-6.938l-15.11,15.11C51.074,56.182,50.497,56.42,49.882,56.42z"/><path fill="#472b29" d="M70.484,33.474l0,0.002h0.036l0,3.2h-0.002v1.4v9.498c0,0.882-0.718,1.6-1.6,1.6 c-0.882,0-1.6-0.718-1.6-1.6v-5.247v-3.38l-2.39,2.39L51.013,55.252c-0.302,0.302-0.704,0.469-1.131,0.469 s-0.829-0.167-1.131-0.469c-0.624-0.624-0.624-1.639,0-2.263l13.923-13.923l2.39-2.39h-3.38H56.42 c-0.427,0-0.829-0.167-1.131-0.469s-0.469-0.704-0.469-1.131c0-0.882,0.718-1.6,1.6-1.6h9.498l1.4-0.002H70.484 M71.918,32.074h-6 v0.002H56.42c-1.657,0-3,1.343-3,3c0,1.657,1.343,3,3,3h5.264L47.761,51.999c-1.172,1.172-1.172,3.071,0,4.243 c0.586,0.586,1.354,0.879,2.121,0.879s1.536-0.293,2.121-0.879l13.915-13.915v5.247c0,1.657,1.343,3,3,3h0c1.657,0,3-1.343,3-3 v-9.498h0.002l0-6h-0.002L71.918,32.074L71.918,32.074z"/></g></svg>